<?xml version="1.0" standalone="no"?>
<!DOCTYPE svg PUBLIC "-//W3C//DTD SVG 20010904//EN"
 "http://www.w3.org/TR/2001/REC-SVG-20010904/DTD/svg10.dtd">
<svg version="1.0" xmlns="http://www.w3.org/2000/svg"
 width="3512.000000pt" height="1904.000000pt" viewBox="0 0 3512.000000 1904.000000"
 preserveAspectRatio="xMidYMid meet">

<g transform="translate(0.000000,1904.000000) scale(0.100000,-0.100000)"
fill="#000000" stroke="none">
<path d="M0 9520 l0 -9520 17560 0 17560 0 0 9520 0 9520 -17560 0 -17560 0 0
-9520z m12750 7277 c0 -1405 -4 -1322 67 -1391 49 -47 145 -93 223 -105 90
-15 2134 -15 2268 0 72 8 110 7 140 0 79 -22 137 -94 166 -206 14 -53 16 -629
16 -5658 0 -5223 -1 -5600 -16 -5633 -10 -20 -35 -48 -57 -62 l-41 -27 -1330
0 c-732 0 -1348 4 -1368 8 -27 6 -42 16 -53 37 -13 26 -15 662 -15 5646 0
5346 -1 5619 -17 5653 -12 23 -34 45 -63 61 l-45 25 -4177 0 -4176 0 -39 -31
c-21 -17 -46 -45 -56 -61 -16 -29 -17 -300 -17 -5620 0 -3989 3 -5599 10
-5619 15 -39 58 -84 97 -100 27 -12 681 -14 4180 -15 2281 0 4169 -4 4194 -8
74 -12 79 -22 95 -184 11 -112 14 -417 14 -1439 l0 -1298 -5745 0 -5745 0 0
8645 0 8645 5745 0 5745 0 0 -1263z m18750 10 c0 -992 3 -1263 13 -1302 25
-95 101 -186 175 -209 27 -9 348 -10 1207 -6 898 5 1179 3 1208 -6 49 -15 105
-54 182 -125 76 -71 92 -79 154 -79 l51 0 0 -5635 0 -5635 -52 0 c-29 -1 -69
-7 -88 -15 -19 -7 -73 -28 -120 -47 l-85 -33 -1280 0 c-704 0 -1292 3 -1307 8
-15 4 -33 17 -40 30 -11 18 -13 1102 -15 5654 -2 4964 -4 5636 -17 5662 -19
36 -70 60 -149 72 -95 13 -11098 12 -11190 -2 -83 -12 -140 -40 -171 -82 l-21
-28 -2 -5618 c-1 -3810 -5 -5626 -12 -5644 -6 -15 -23 -33 -38 -40 -22 -9
-318 -12 -1318 -12 -1239 0 -1292 1 -1340 19 -72 27 -115 62 -138 115 -19 44
-20 53 -8 186 9 106 11 1471 11 5574 l-1 5433 30 64 c33 70 99 141 158 169 35
17 103 18 1230 16 1177 -2 1193 -2 1238 18 57 25 142 111 168 170 19 44 20 68
18 1313 l-2 1268 5775 0 5776 0 0 -1253z m-53 -13133 c20 -15 30 -33 35 -65
18 -117 23 -471 20 -1606 l-3 -1233 -5774 0 -5775 0 0 1273 c0 1195 2 1282 20
1437 22 185 26 194 103 204 23 3 53 7 67 10 14 2 2557 3 5652 2 l5627 -1 28
-21z"/>
</g>
</svg>
