<svg id="svg" version="1.1" xmlns="http://www.w3.org/2000/svg" xmlns:xlink="http://www.w3.org/1999/xlink" width="400" height="400" viewBox="0, 0, 400,400"><g id="svgg"><path id="path0" d="M137.500 93.750 L 137.500 100.000 131.250 100.000 L 125.000 100.000 125.000 106.250 L 125.000 112.500 118.750 112.500 L 112.500 112.500 112.500 125.000 L 112.500 137.500 106.250 137.500 L 100.000 137.500 100.000 131.250 L 100.000 125.000 87.500 125.000 L 75.000 125.000 75.000 118.750 L 75.000 112.500 56.250 112.500 L 37.500 112.500 37.500 118.750 L 37.500 125.000 43.750 125.000 L 50.000 125.000 50.000 131.250 L 50.000 137.500 56.250 137.500 L 62.500 137.500 62.500 150.000 L 62.500 162.500 68.750 162.500 L 75.000 162.500 75.000 168.750 L 75.000 175.000 81.250 175.000 L 87.500 175.000 87.500 168.750 L 87.500 162.500 81.250 162.500 L 75.000 162.500 75.000 150.000 L 75.000 137.500 87.500 137.500 L 100.000 137.500 100.000 156.250 L 100.000 175.000 106.250 175.000 L 112.500 175.000 112.500 181.250 L 112.500 187.500 131.250 187.500 L 150.000 187.500 150.000 193.750 L 150.000 200.000 168.750 200.000 L 187.500 200.000 187.500 193.750 L 187.500 187.500 200.000 187.500 L 212.500 187.500 212.500 181.250 L 212.500 175.000 218.750 175.000 L 225.000 175.000 225.000 168.750 L 225.000 162.500 200.000 162.500 L 175.000 162.500 175.000 156.250 L 175.000 150.000 168.750 150.000 L 162.500 150.000 162.500 156.250 L 162.500 162.500 137.500 162.500 L 112.500 162.500 112.500 156.250 L 112.500 150.000 118.750 150.000 L 125.000 150.000 125.000 143.750 L 125.000 137.500 137.500 137.500 L 150.000 137.500 150.000 131.250 L 150.000 125.000 156.250 125.000 L 162.500 125.000 162.500 131.250 L 162.500 137.500 168.750 137.500 L 175.000 137.500 175.000 131.250 L 175.000 125.000 181.250 125.000 L 187.500 125.000 187.500 131.250 L 187.500 137.500 200.000 137.500 L 212.500 137.500 212.500 143.750 L 212.500 150.000 218.750 150.000 L 225.000 150.000 225.000 143.750 L 225.000 137.500 237.500 137.500 L 250.000 137.500 250.000 150.000 L 250.000 162.500 243.750 162.500 L 237.500 162.500 237.500 168.750 L 237.500 175.000 243.750 175.000 L 250.000 175.000 250.000 168.750 L 250.000 162.500 256.250 162.500 L 262.500 162.500 262.500 156.250 L 262.500 150.000 268.750 150.000 L 275.000 150.000 275.000 137.500 L 275.000 125.000 281.250 125.000 L 287.500 125.000 287.500 118.750 L 287.500 112.500 268.750 112.500 L 250.000 112.500 250.000 118.750 L 250.000 125.000 237.500 125.000 L 225.000 125.000 225.000 131.250 L 225.000 137.500 218.750 137.500 L 212.500 137.500 212.500 125.000 L 212.500 112.500 206.250 112.500 L 200.000 112.500 200.000 106.250 L 200.000 100.000 193.750 100.000 L 187.500 100.000 187.500 93.750 L 187.500 87.500 162.500 87.500 L 137.500 87.500 137.500 93.750 M150.000 118.750 L 150.000 125.000 143.750 125.000 L 137.500 125.000 137.500 118.750 L 137.500 112.500 143.750 112.500 L 150.000 112.500 150.000 118.750 M200.000 118.750 L 200.000 125.000 193.750 125.000 L 187.500 125.000 187.500 118.750 L 187.500 112.500 193.750 112.500 L 200.000 112.500 200.000 118.750 M75.000 131.250 L 75.000 137.500 68.750 137.500 L 62.500 137.500 62.500 131.250 L 62.500 125.000 68.750 125.000 L 75.000 125.000 75.000 131.250 M262.500 131.250 L 262.500 137.500 256.250 137.500 L 250.000 137.500 250.000 131.250 L 250.000 125.000 256.250 125.000 L 262.500 125.000 262.500 131.250 M175.000 168.750 L 175.000 175.000 181.250 175.000 L 187.500 175.000 187.500 181.250 L 187.500 187.500 168.750 187.500 L 150.000 187.500 150.000 181.250 L 150.000 175.000 156.250 175.000 L 162.500 175.000 162.500 168.750 L 162.500 162.500 168.750 162.500 L 175.000 162.500 175.000 168.750 M162.500 231.250 L 162.500 237.500 156.250 237.500 L 150.000 237.500 150.000 256.250 L 150.000 275.000 156.250 275.000 L 162.500 275.000 162.500 268.750 L 162.500 262.500 168.750 262.500 L 175.000 262.500 175.000 256.250 L 175.000 250.000 181.250 250.000 L 187.500 250.000 187.500 256.250 L 187.500 262.500 193.750 262.500 L 200.000 262.500 200.000 250.000 L 200.000 237.500 193.750 237.500 L 187.500 237.500 187.500 231.250 L 187.500 225.000 175.000 225.000 L 162.500 225.000 162.500 231.250 M175.000 243.750 L 175.000 250.000 168.750 250.000 L 162.500 250.000 162.500 243.750 L 162.500 237.500 168.750 237.500 L 175.000 237.500 175.000 243.750 M112.500 331.250 L 112.500 337.500 125.000 337.500 L 137.500 337.500 137.500 331.250 L 137.500 325.000 125.000 325.000 L 112.500 325.000 112.500 331.250 M150.000 331.250 L 150.000 337.500 156.250 337.500 L 162.500 337.500 162.500 331.250 L 162.500 325.000 156.250 325.000 L 150.000 325.000 150.000 331.250 M187.500 331.250 L 187.500 337.500 200.000 337.500 L 212.500 337.500 212.500 331.250 L 212.500 325.000 200.000 325.000 L 187.500 325.000 187.500 331.250 M225.000 331.250 L 225.000 337.500 231.250 337.500 L 237.500 337.500 237.500 331.250 L 237.500 325.000 231.250 325.000 L 225.000 325.000 225.000 331.250 " stroke="none" fill="#b4e47c" fill-rule="evenodd"></path><path id="path1" d="M100.000 212.500 L 100.000 225.000 93.750 225.000 L 87.500 225.000 87.500 243.750 L 87.500 262.500 93.750 262.500 L 100.000 262.500 100.000 268.750 L 100.000 275.000 112.500 275.000 L 125.000 275.000 125.000 256.250 L 125.000 237.500 131.250 237.500 L 137.500 237.500 137.500 218.750 L 137.500 200.000 118.750 200.000 L 100.000 200.000 100.000 212.500 M200.000 218.750 L 200.000 237.500 206.250 237.500 L 212.500 237.500 212.500 256.250 L 212.500 275.000 218.750 275.000 L 225.000 275.000 225.000 268.750 L 225.000 262.500 231.250 262.500 L 237.500 262.500 237.500 237.500 L 237.500 212.500 231.250 212.500 L 225.000 212.500 225.000 206.250 L 225.000 200.000 212.500 200.000 L 200.000 200.000 200.000 218.750 M87.500 293.750 L 87.500 300.000 93.750 300.000 L 100.000 300.000 100.000 306.250 L 100.000 312.500 87.500 312.500 L 75.000 312.500 75.000 318.750 L 75.000 325.000 93.750 325.000 L 112.500 325.000 112.500 318.750 L 112.500 312.500 137.500 312.500 L 162.500 312.500 162.500 306.250 L 162.500 300.000 156.250 300.000 L 150.000 300.000 150.000 293.750 L 150.000 287.500 118.750 287.500 L 87.500 287.500 87.500 293.750 M187.500 300.000 L 187.500 312.500 212.500 312.500 L 237.500 312.500 237.500 318.750 L 237.500 325.000 243.750 325.000 L 250.000 325.000 250.000 318.750 L 250.000 312.500 243.750 312.500 L 237.500 312.500 237.500 300.000 L 237.500 287.500 212.500 287.500 L 187.500 287.500 187.500 300.000 " stroke="none" fill="#dc944c" fill-rule="evenodd"></path><path id="path2" d="M137.500 118.750 L 137.500 125.000 143.750 125.000 L 150.000 125.000 150.000 131.250 L 150.000 137.500 137.500 137.500 L 125.000 137.500 125.000 143.750 L 125.000 150.000 118.750 150.000 L 112.500 150.000 112.500 156.250 L 112.500 162.500 118.750 162.500 L 125.000 162.500 125.000 156.250 L 125.000 150.000 137.500 150.000 L 150.000 150.000 150.000 156.250 L 150.000 162.500 156.250 162.500 L 162.500 162.500 162.500 168.750 L 162.500 175.000 156.250 175.000 L 150.000 175.000 150.000 181.250 L 150.000 187.500 131.250 187.500 L 112.500 187.500 112.500 181.250 L 112.500 175.000 106.250 175.000 L 100.000 175.000 100.000 156.250 L 100.000 137.500 87.500 137.500 L 75.000 137.500 75.000 131.250 L 75.000 125.000 68.750 125.000 L 62.500 125.000 62.500 131.250 L 62.500 137.500 68.750 137.500 L 75.000 137.500 75.000 150.000 L 75.000 162.500 81.250 162.500 L 87.500 162.500 87.500 168.750 L 87.500 175.000 93.750 175.000 L 100.000 175.000 100.000 181.250 L 100.000 187.500 106.250 187.500 L 112.500 187.500 112.500 193.750 L 112.500 200.000 131.250 200.000 L 150.000 200.000 150.000 206.250 L 150.000 212.500 168.750 212.500 L 187.500 212.500 187.500 206.250 L 187.500 200.000 200.000 200.000 L 212.500 200.000 212.500 193.750 L 212.500 187.500 218.750 187.500 L 225.000 187.500 225.000 181.250 L 225.000 175.000 231.250 175.000 L 237.500 175.000 237.500 168.750 L 237.500 162.500 243.750 162.500 L 250.000 162.500 250.000 150.000 L 250.000 137.500 256.250 137.500 L 262.500 137.500 262.500 131.250 L 262.500 125.000 256.250 125.000 L 250.000 125.000 250.000 131.250 L 250.000 137.500 237.500 137.500 L 225.000 137.500 225.000 143.750 L 225.000 150.000 218.750 150.000 L 212.500 150.000 212.500 143.750 L 212.500 137.500 200.000 137.500 L 187.500 137.500 187.500 131.250 L 187.500 125.000 193.750 125.000 L 200.000 125.000 200.000 118.750 L 200.000 112.500 193.750 112.500 L 187.500 112.500 187.500 118.750 L 187.500 125.000 181.250 125.000 L 175.000 125.000 175.000 131.250 L 175.000 137.500 168.750 137.500 L 162.500 137.500 162.500 131.250 L 162.500 125.000 156.250 125.000 L 150.000 125.000 150.000 118.750 L 150.000 112.500 143.750 112.500 L 137.500 112.500 137.500 118.750 M175.000 156.250 L 175.000 162.500 181.250 162.500 L 187.500 162.500 187.500 156.250 L 187.500 150.000 200.000 150.000 L 212.500 150.000 212.500 156.250 L 212.500 162.500 218.750 162.500 L 225.000 162.500 225.000 168.750 L 225.000 175.000 218.750 175.000 L 212.500 175.000 212.500 181.250 L 212.500 187.500 200.000 187.500 L 187.500 187.500 187.500 193.750 L 187.500 200.000 168.750 200.000 L 150.000 200.000 150.000 193.750 L 150.000 187.500 168.750 187.500 L 187.500 187.500 187.500 181.250 L 187.500 175.000 181.250 175.000 L 175.000 175.000 175.000 168.750 L 175.000 162.500 168.750 162.500 L 162.500 162.500 162.500 156.250 L 162.500 150.000 168.750 150.000 L 175.000 150.000 175.000 156.250 M137.500 250.000 L 137.500 262.500 143.750 262.500 L 150.000 262.500 150.000 250.000 L 150.000 237.500 143.750 237.500 L 137.500 237.500 137.500 250.000 M162.500 243.750 L 162.500 250.000 168.750 250.000 L 175.000 250.000 175.000 243.750 L 175.000 237.500 168.750 237.500 L 162.500 237.500 162.500 243.750 M137.500 331.250 L 137.500 337.500 143.750 337.500 L 150.000 337.500 150.000 331.250 L 150.000 325.000 143.750 325.000 L 137.500 325.000 137.500 331.250 M212.500 331.250 L 212.500 337.500 218.750 337.500 L 225.000 337.500 225.000 331.250 L 225.000 325.000 218.750 325.000 L 212.500 325.000 212.500 331.250 " stroke="none" fill="#7c9c54" fill-rule="evenodd"></path><path id="path3" d="M137.500 212.500 L 137.500 225.000 143.750 225.000 L 150.000 225.000 150.000 231.250 L 150.000 237.500 156.250 237.500 L 162.500 237.500 162.500 231.250 L 162.500 225.000 181.250 225.000 L 200.000 225.000 200.000 212.500 L 200.000 200.000 193.750 200.000 L 187.500 200.000 187.500 206.250 L 187.500 212.500 168.750 212.500 L 150.000 212.500 150.000 206.250 L 150.000 200.000 143.750 200.000 L 137.500 200.000 137.500 212.500 M150.000 287.500 L 150.000 300.000 156.250 300.000 L 162.500 300.000 162.500 318.750 L 162.500 337.500 168.750 337.500 L 175.000 337.500 175.000 312.500 L 175.000 287.500 168.750 287.500 L 162.500 287.500 162.500 281.250 L 162.500 275.000 156.250 275.000 L 150.000 275.000 150.000 287.500 " stroke="none" fill="#843c24" fill-rule="evenodd"></path><path id="path4" d="M137.500 231.250 L 137.500 237.500 131.250 237.500 L 125.000 237.500 125.000 256.250 L 125.000 275.000 112.500 275.000 L 100.000 275.000 100.000 268.750 L 100.000 262.500 93.750 262.500 L 87.500 262.500 87.500 268.750 L 87.500 275.000 93.750 275.000 L 100.000 275.000 100.000 281.250 L 100.000 287.500 125.000 287.500 L 150.000 287.500 150.000 275.000 L 150.000 262.500 143.750 262.500 L 137.500 262.500 137.500 250.000 L 137.500 237.500 143.750 237.500 L 150.000 237.500 150.000 231.250 L 150.000 225.000 143.750 225.000 L 137.500 225.000 137.500 231.250 M187.500 231.250 L 187.500 237.500 193.750 237.500 L 200.000 237.500 200.000 250.000 L 200.000 262.500 193.750 262.500 L 187.500 262.500 187.500 275.000 L 187.500 287.500 206.250 287.500 L 225.000 287.500 225.000 281.250 L 225.000 275.000 231.250 275.000 L 237.500 275.000 237.500 268.750 L 237.500 262.500 231.250 262.500 L 225.000 262.500 225.000 268.750 L 225.000 275.000 218.750 275.000 L 212.500 275.000 212.500 256.250 L 212.500 237.500 206.250 237.500 L 200.000 237.500 200.000 231.250 L 200.000 225.000 193.750 225.000 L 187.500 225.000 187.500 231.250 M75.000 306.250 L 75.000 312.500 87.500 312.500 L 100.000 312.500 100.000 306.250 L 100.000 300.000 87.500 300.000 L 75.000 300.000 75.000 306.250 M112.500 318.750 L 112.500 325.000 93.750 325.000 L 75.000 325.000 75.000 331.250 L 75.000 337.500 93.750 337.500 L 112.500 337.500 112.500 331.250 L 112.500 325.000 137.500 325.000 L 162.500 325.000 162.500 318.750 L 162.500 312.500 137.500 312.500 L 112.500 312.500 112.500 318.750 M187.500 318.750 L 187.500 325.000 212.500 325.000 L 237.500 325.000 237.500 331.250 L 237.500 337.500 243.750 337.500 L 250.000 337.500 250.000 331.250 L 250.000 325.000 243.750 325.000 L 237.500 325.000 237.500 318.750 L 237.500 312.500 212.500 312.500 L 187.500 312.500 187.500 318.750 " stroke="none" fill="#9c543c" fill-rule="evenodd"></path><path id="path5" d="M137.500 81.250 L 137.500 87.500 125.000 87.500 L 112.500 87.500 112.500 93.750 L 112.500 100.000 100.000 100.000 L 87.500 100.000 87.500 106.250 L 87.500 112.500 81.250 112.500 L 75.000 112.500 75.000 106.250 L 75.000 100.000 56.250 100.000 L 37.500 100.000 37.500 106.250 L 37.500 112.500 31.250 112.500 L 25.000 112.500 25.000 118.750 L 25.000 125.000 31.250 125.000 L 37.500 125.000 37.500 131.250 L 37.500 137.500 43.750 137.500 L 50.000 137.500 50.000 150.000 L 50.000 162.500 56.250 162.500 L 62.500 162.500 62.500 168.750 L 62.500 175.000 68.750 175.000 L 75.000 175.000 75.000 181.250 L 75.000 187.500 87.500 187.500 L 100.000 187.500 100.000 193.750 L 100.000 200.000 93.750 200.000 L 87.500 200.000 87.500 212.500 L 87.500 225.000 81.250 225.000 L 75.000 225.000 75.000 250.000 L 75.000 275.000 81.250 275.000 L 87.500 275.000 87.500 281.250 L 87.500 287.500 81.250 287.500 L 75.000 287.500 75.000 293.750 L 75.000 300.000 68.750 300.000 L 62.500 300.000 62.500 318.750 L 62.500 337.500 68.750 337.500 L 75.000 337.500 75.000 343.750 L 75.000 350.000 162.500 350.000 L 250.000 350.000 250.000 343.750 L 250.000 337.500 256.250 337.500 L 262.500 337.500 262.500 325.000 L 262.500 312.500 256.250 312.500 L 250.000 312.500 250.000 300.000 L 250.000 287.500 243.750 287.500 L 237.500 287.500 237.500 281.250 L 237.500 275.000 243.750 275.000 L 250.000 275.000 250.000 243.750 L 250.000 212.500 243.750 212.500 L 237.500 212.500 237.500 206.250 L 237.500 200.000 231.250 200.000 L 225.000 200.000 225.000 193.750 L 225.000 187.500 237.500 187.500 L 250.000 187.500 250.000 181.250 L 250.000 175.000 256.250 175.000 L 262.500 175.000 262.500 168.750 L 262.500 162.500 268.750 162.500 L 275.000 162.500 275.000 156.250 L 275.000 150.000 281.250 150.000 L 287.500 150.000 287.500 137.500 L 287.500 125.000 293.750 125.000 L 300.000 125.000 300.000 118.750 L 300.000 112.500 293.750 112.500 L 287.500 112.500 287.500 106.250 L 287.500 100.000 268.750 100.000 L 250.000 100.000 250.000 106.250 L 250.000 112.500 243.750 112.500 L 237.500 112.500 237.500 106.250 L 237.500 100.000 225.000 100.000 L 212.500 100.000 212.500 93.750 L 212.500 87.500 200.000 87.500 L 187.500 87.500 187.500 81.250 L 187.500 75.000 162.500 75.000 L 137.500 75.000 137.500 81.250 M187.500 93.750 L 187.500 100.000 200.000 100.000 L 212.500 100.000 212.500 106.250 L 212.500 112.500 225.000 112.500 L 237.500 112.500 237.500 118.750 L 237.500 125.000 243.750 125.000 L 250.000 125.000 250.000 118.750 L 250.000 112.500 268.750 112.500 L 287.500 112.500 287.500 118.750 L 287.500 125.000 281.250 125.000 L 275.000 125.000 275.000 137.500 L 275.000 150.000 268.750 150.000 L 262.500 150.000 262.500 156.250 L 262.500 162.500 256.250 162.500 L 250.000 162.500 250.000 168.750 L 250.000 175.000 237.500 175.000 L 225.000 175.000 225.000 181.250 L 225.000 187.500 218.750 187.500 L 212.500 187.500 212.500 193.750 L 212.500 200.000 218.750 200.000 L 225.000 200.000 225.000 206.250 L 225.000 212.500 231.250 212.500 L 237.500 212.500 237.500 243.750 L 237.500 275.000 231.250 275.000 L 225.000 275.000 225.000 281.250 L 225.000 287.500 231.250 287.500 L 237.500 287.500 237.500 300.000 L 237.500 312.500 243.750 312.500 L 250.000 312.500 250.000 325.000 L 250.000 337.500 218.750 337.500 L 187.500 337.500 187.500 293.750 L 187.500 250.000 181.250 250.000 L 175.000 250.000 175.000 256.250 L 175.000 262.500 168.750 262.500 L 162.500 262.500 162.500 275.000 L 162.500 287.500 168.750 287.500 L 175.000 287.500 175.000 312.500 L 175.000 337.500 125.000 337.500 L 75.000 337.500 75.000 318.750 L 75.000 300.000 81.250 300.000 L 87.500 300.000 87.500 293.750 L 87.500 287.500 93.750 287.500 L 100.000 287.500 100.000 281.250 L 100.000 275.000 93.750 275.000 L 87.500 275.000 87.500 250.000 L 87.500 225.000 93.750 225.000 L 100.000 225.000 100.000 212.500 L 100.000 200.000 106.250 200.000 L 112.500 200.000 112.500 193.750 L 112.500 187.500 106.250 187.500 L 100.000 187.500 100.000 181.250 L 100.000 175.000 87.500 175.000 L 75.000 175.000 75.000 168.750 L 75.000 162.500 68.750 162.500 L 62.500 162.500 62.500 150.000 L 62.500 137.500 56.250 137.500 L 50.000 137.500 50.000 131.250 L 50.000 125.000 43.750 125.000 L 37.500 125.000 37.500 118.750 L 37.500 112.500 56.250 112.500 L 75.000 112.500 75.000 118.750 L 75.000 125.000 81.250 125.000 L 87.500 125.000 87.500 118.750 L 87.500 112.500 100.000 112.500 L 112.500 112.500 112.500 106.250 L 112.500 100.000 125.000 100.000 L 137.500 100.000 137.500 93.750 L 137.500 87.500 162.500 87.500 L 187.500 87.500 187.500 93.750 " stroke="none" fill="#441c14" fill-rule="evenodd"></path><path id="path6" d="M200.000 106.250 L 200.000 112.500 206.250 112.500 L 212.500 112.500 212.500 118.750 L 212.500 125.000 218.750 125.000 L 225.000 125.000 225.000 118.750 L 225.000 112.500 218.750 112.500 L 212.500 112.500 212.500 106.250 L 212.500 100.000 206.250 100.000 L 200.000 100.000 200.000 106.250 M87.500 118.750 L 87.500 125.000 93.750 125.000 L 100.000 125.000 100.000 131.250 L 100.000 137.500 106.250 137.500 L 112.500 137.500 112.500 131.250 L 112.500 125.000 106.250 125.000 L 100.000 125.000 100.000 118.750 L 100.000 112.500 93.750 112.500 L 87.500 112.500 87.500 118.750 M125.000 156.250 L 125.000 162.500 131.250 162.500 L 137.500 162.500 137.500 156.250 L 137.500 150.000 131.250 150.000 L 125.000 150.000 125.000 156.250 " stroke="none" fill="#fcfcfc" fill-rule="evenodd"></path><path id="path7" d="M137.500 156.250 L 137.500 162.500 143.750 162.500 L 150.000 162.500 150.000 156.250 L 150.000 150.000 143.750 150.000 L 137.500 150.000 137.500 156.250 M200.000 156.250 L 200.000 162.500 206.250 162.500 L 212.500 162.500 212.500 156.250 L 212.500 150.000 206.250 150.000 L 200.000 150.000 200.000 156.250 " stroke="none" fill="#040404" fill-rule="evenodd"></path><path id="path8" d="" stroke="none" fill="#248c8c" fill-rule="evenodd"></path></g></svg>