<?xml version="1.0" encoding="UTF-8"?>
<svg version="1.1" xmlns="http://www.w3.org/2000/svg" width="813" height="813">
<path d="M0 0 C48.84 0 97.68 0 148 0 C148 12.21 148 24.42 148 37 C172.42 37 196.84 37 222 37 C222 49.21 222 61.42 222 74 C246.42 74 270.84 74 296 74 C296 86.21 296 98.42 296 111 C308.21 111 320.42 111 333 111 C333 98.79 333 86.58 333 74 C369.63 74 406.26 74 444 74 C444 86.21 444 98.42 444 111 C456.21 111 468.42 111 481 111 C481 123.21 481 135.42 481 148 C468.79 148 456.58 148 444 148 C444 172.42 444 196.84 444 222 C431.79 222 419.58 222 407 222 C407 234.21 407 246.42 407 259 C394.79 259 382.58 259 370 259 C370 271.21 370 283.42 370 296 C357.79 296 345.58 296 333 296 C333 308.21 333 320.42 333 333 C308.58 333 284.16 333 259 333 C259 345.21 259 357.42 259 370 C271.21 370 283.42 370 296 370 C296 382.21 296 394.42 296 407 C308.21 407 320.42 407 333 407 C333 468.05 333 529.1 333 592 C320.79 592 308.58 592 296 592 C296 604.21 296 616.42 296 629 C308.21 629 320.42 629 333 629 C333 653.42 333 677.84 333 703 C345.21 703 357.42 703 370 703 C370 727.42 370 751.84 370 777 C357.79 777 345.58 777 333 777 C333 788.88 333 800.76 333 813 C162.06 813 -8.88 813 -185 813 C-185 801.12 -185 789.24 -185 777 C-197.21 777 -209.42 777 -222 777 C-222 740.37 -222 703.74 -222 666 C-209.79 666 -197.58 666 -185 666 C-185 653.79 -185 641.58 -185 629 C-172.79 629 -160.58 629 -148 629 C-148 616.79 -148 604.58 -148 592 C-160.21 592 -172.42 592 -185 592 C-185 543.16 -185 494.32 -185 444 C-172.79 444 -160.58 444 -148 444 C-148 419.58 -148 395.16 -148 370 C-135.79 370 -123.58 370 -111 370 C-111 357.79 -111 345.58 -111 333 C-135.42 333 -159.84 333 -185 333 C-185 320.79 -185 308.58 -185 296 C-197.21 296 -209.42 296 -222 296 C-222 283.79 -222 271.58 -222 259 C-234.21 259 -246.42 259 -259 259 C-259 234.58 -259 210.16 -259 185 C-271.21 185 -283.42 185 -296 185 C-296 172.79 -296 160.58 -296 148 C-307.88 148 -319.76 148 -332 148 C-332 135.79 -332 123.58 -332 111 C-320.12 111 -308.24 111 -296 111 C-296 98.79 -296 86.58 -296 74 C-259.37 74 -222.74 74 -185 74 C-185 86.21 -185 98.42 -185 111 C-172.79 111 -160.58 111 -148 111 C-148 98.79 -148 86.58 -148 74 C-123.58 74 -99.16 74 -74 74 C-74 61.79 -74 49.58 -74 37 C-49.58 37 -25.16 37 0 37 C0 24.79 0 12.58 0 0 Z " fill="#9C533E" transform="translate(332,0)"/>
<path d="M0 0 C48.84 0 97.68 0 148 0 C148 12.21 148 24.42 148 37 C172.42 37 196.84 37 222 37 C222 49.21 222 61.42 222 74 C246.42 74 270.84 74 296 74 C296 86.21 296 98.42 296 111 C308.21 111 320.42 111 333 111 C333 98.79 333 86.58 333 74 C369.63 74 406.26 74 444 74 C444 86.21 444 98.42 444 111 C456.21 111 468.42 111 481 111 C481 123.21 481 135.42 481 148 C468.79 148 456.58 148 444 148 C444 172.42 444 196.84 444 222 C431.79 222 419.58 222 407 222 C407 234.21 407 246.42 407 259 C394.79 259 382.58 259 370 259 C370 271.21 370 283.42 370 296 C357.79 296 345.58 296 333 296 C333 308.21 333 320.42 333 333 C271.95 333 210.9 333 148 333 C148 357.42 148 381.84 148 407 C111.37 407 74.74 407 37 407 C37 382.58 37 358.16 37 333 C-36.26 333 -109.52 333 -185 333 C-185 320.79 -185 308.58 -185 296 C-197.21 296 -209.42 296 -222 296 C-222 283.79 -222 271.58 -222 259 C-234.21 259 -246.42 259 -259 259 C-259 234.58 -259 210.16 -259 185 C-271.21 185 -283.42 185 -296 185 C-296 172.79 -296 160.58 -296 148 C-307.88 148 -319.76 148 -332 148 C-332 135.79 -332 123.58 -332 111 C-320.12 111 -308.24 111 -296 111 C-296 98.79 -296 86.58 -296 74 C-259.37 74 -222.74 74 -185 74 C-185 86.21 -185 98.42 -185 111 C-172.79 111 -160.58 111 -148 111 C-148 98.79 -148 86.58 -148 74 C-123.58 74 -99.16 74 -74 74 C-74 61.79 -74 49.58 -74 37 C-49.58 37 -25.16 37 0 37 C0 24.79 0 12.58 0 0 Z " fill="#B4E07E" transform="translate(332,0)"/>
<path d="M0 0 C36.63 0 73.26 0 111 0 C111 12.21 111 24.42 111 37 C123.21 37 135.42 37 148 37 C148 98.05 148 159.1 148 222 C135.79 222 123.58 222 111 222 C111 234.21 111 246.42 111 259 C123.21 259 135.42 259 148 259 C148 283.42 148 307.84 148 333 C160.21 333 172.42 333 185 333 C185 357.42 185 381.84 185 407 C111.74 407 38.48 407 -37 407 C-37 321.53 -37 236.06 -37 148 C-49.21 148 -61.42 148 -74 148 C-74 160.21 -74 172.42 -74 185 C-86.21 185 -98.42 185 -111 185 C-111 197.21 -111 209.42 -111 222 C-123.21 222 -135.42 222 -148 222 C-148 185.37 -148 148.74 -148 111 C-135.79 111 -123.58 111 -111 111 C-111 98.79 -111 86.58 -111 74 C-86.58 74 -62.16 74 -37 74 C-37 86.21 -37 98.42 -37 111 C-24.79 111 -12.58 111 0 111 C0 74.37 0 37.74 0 0 Z " fill="#DE974C" transform="translate(517,370)"/>
<path d="M0 0 C36.63 0 73.26 0 111 0 C111 12.21 111 24.42 111 37 C123.21 37 135.42 37 148 37 C148 49.21 148 61.42 148 74 C135.79 74 123.58 74 111 74 C111 98.42 111 122.84 111 148 C98.79 148 86.58 148 74 148 C74 160.21 74 172.42 74 185 C61.79 185 49.58 185 37 185 C37 197.21 37 209.42 37 222 C24.79 222 12.58 222 0 222 C0 234.21 0 246.42 0 259 C-24.42 259 -48.84 259 -74 259 C-74 234.58 -74 210.16 -74 185 C-98.42 185 -122.84 185 -148 185 C-148 172.79 -148 160.58 -148 148 C-160.21 148 -172.42 148 -185 148 C-185 160.21 -185 172.42 -185 185 C-197.21 185 -209.42 185 -222 185 C-222 172.79 -222 160.58 -222 148 C-234.21 148 -246.42 148 -259 148 C-259 160.21 -259 172.42 -259 185 C-283.42 185 -307.84 185 -333 185 C-333 172.79 -333 160.58 -333 148 C-345.21 148 -357.42 148 -370 148 C-370 135.79 -370 123.58 -370 111 C-345.58 111 -321.16 111 -296 111 C-296 98.79 -296 86.58 -296 74 C-283.79 74 -271.58 74 -259 74 C-259 86.21 -259 98.42 -259 111 C-246.79 111 -234.58 111 -222 111 C-222 98.79 -222 86.58 -222 74 C-209.79 74 -197.58 74 -185 74 C-185 86.21 -185 98.42 -185 111 C-148.37 111 -111.74 111 -74 111 C-74 98.79 -74 86.58 -74 74 C-61.79 74 -49.58 74 -37 74 C-37 61.79 -37 49.58 -37 37 C-24.79 37 -12.58 37 0 37 C0 24.79 0 12.58 0 0 Z " fill="#7C9953" transform="translate(665,74)"/>
<path d="M0 0 C73.26 0 146.52 0 222 0 C222 12.21 222 24.42 222 37 C234.21 37 246.42 37 259 37 C259 73.63 259 110.26 259 148 C161.32 148 63.64 148 -37 148 C-37 111.37 -37 74.74 -37 37 C-24.79 37 -12.58 37 0 37 C0 24.79 0 12.58 0 0 Z " fill="#9C533E" transform="translate(147,629)"/>
<path d="M0 0 C36.63 0 73.26 0 111 0 C111 12.21 111 24.42 111 37 C123.21 37 135.42 37 148 37 C148 49.21 148 61.42 148 74 C160.21 74 172.42 74 185 74 C185 135.05 185 196.1 185 259 C160.58 259 136.16 259 111 259 C111 246.79 111 234.58 111 222 C98.79 222 86.58 222 74 222 C74 209.79 74 197.58 74 185 C61.79 185 49.58 185 37 185 C37 160.58 37 136.16 37 111 C24.79 111 12.58 111 0 111 C0 98.79 0 86.58 0 74 C-11.88 74 -23.76 74 -36 74 C-36 61.79 -36 49.58 -36 37 C-24.12 37 -12.24 37 0 37 C0 24.79 0 12.58 0 0 Z " fill="#7C9953" transform="translate(36,74)"/>
<path d="M0 0 C48.84 0 97.68 0 148 0 C148 36.63 148 73.26 148 111 C135.79 111 123.58 111 111 111 C111 147.63 111 184.26 111 222 C62.16 222 13.32 222 -37 222 C-37 173.16 -37 124.32 -37 74 C-24.79 74 -12.58 74 0 74 C0 49.58 0 25.16 0 0 Z " fill="#DE974C" transform="translate(184,370)"/>
<path d="M0 0 C12.21 0 24.42 0 37 0 C37 85.47 37 170.94 37 259 C98.05 259 159.1 259 222 259 C222 270.88 222 282.76 222 295 C51.06 295 -119.88 295 -296 295 C-296 283.12 -296 271.24 -296 259 C-198.32 259 -100.64 259 0 259 C0 210.16 0 161.32 0 111 C-12.21 111 -24.42 111 -37 111 C-37 86.58 -37 62.16 -37 37 C-24.79 37 -12.58 37 0 37 C0 24.79 0 12.58 0 0 Z " fill="#401E13" transform="translate(443,518)"/>
<path d="M0 0 C12.21 0 24.42 0 37 0 C37 12.21 37 24.42 37 37 C49.21 37 61.42 37 74 37 C74 24.79 74 12.58 74 0 C86.21 0 98.42 0 111 0 C111 12.21 111 24.42 111 37 C135.42 37 159.84 37 185 37 C185 61.42 185 85.84 185 111 C148.37 111 111.74 111 74 111 C74 135.42 74 159.84 74 185 C37.37 185 0.74 185 -37 185 C-37 148.37 -37 111.74 -37 74 C-24.79 74 -12.58 74 0 74 C0 49.58 0 25.16 0 0 Z " fill="#7C9953" transform="translate(406,222)"/>
<path d="M0 0 C36.63 0 73.26 0 111 0 C111 12.21 111 24.42 111 37 C123.21 37 135.42 37 148 37 C148 49.21 148 61.42 148 74 C135.79 74 123.58 74 111 74 C111 98.42 111 122.84 111 148 C98.79 148 86.58 148 74 148 C74 160.21 74 172.42 74 185 C49.58 185 25.16 185 0 185 C0 160.58 0 136.16 0 111 C-24.42 111 -48.84 111 -74 111 C-74 98.79 -74 86.58 -74 74 C-61.79 74 -49.58 74 -37 74 C-37 61.79 -37 49.58 -37 37 C-24.79 37 -12.58 37 0 37 C0 24.79 0 12.58 0 0 Z " fill="#B4E07E" transform="translate(665,74)"/>
<path d="M0 0 C48.84 0 97.68 0 148 0 C148 24.42 148 48.84 148 74 C184.63 74 221.26 74 259 74 C259 49.58 259 25.16 259 0 C295.63 0 332.26 0 370 0 C370 12.21 370 24.42 370 37 C345.58 37 321.16 37 296 37 C296 73.63 296 110.26 296 148 C283.79 148 271.58 148 259 148 C259 135.79 259 123.58 259 111 C234.58 111 210.16 111 185 111 C185 123.21 185 135.42 185 148 C160.58 148 136.16 148 111 148 C111 111.37 111 74.74 111 37 C74.37 37 37.74 37 0 37 C0 24.79 0 12.58 0 0 Z " fill="#853D27" transform="translate(221,333)"/>
<path d="M0 0 C12.21 0 24.42 0 37 0 C37 24.42 37 48.84 37 74 C49.21 74 61.42 74 74 74 C74 98.42 74 122.84 74 148 C0.74 148 -72.52 148 -148 148 C-148 123.58 -148 99.16 -148 74 C-99.16 74 -50.32 74 0 74 C0 49.58 0 25.16 0 0 Z " fill="#9C533E" transform="translate(628,629)"/>
<path d="M0 0 C61.05 0 122.1 0 185 0 C185 12.21 185 24.42 185 37 C197.21 37 209.42 37 222 37 C222 49.21 222 61.42 222 74 C173.16 74 124.32 74 74 74 C74 86.21 74 98.42 74 111 C37.37 111 0.74 111 -37 111 C-37 98.79 -37 86.58 -37 74 C-12.58 74 11.84 74 37 74 C37 61.79 37 49.58 37 37 C24.79 37 12.58 37 0 37 C0 24.79 0 12.58 0 0 Z " fill="#DE974C" transform="translate(184,629)"/>
<path d="M0 0 C36.63 0 73.26 0 111 0 C111 12.21 111 24.42 111 37 C123.21 37 135.42 37 148 37 C148 49.21 148 61.42 148 74 C135.79 74 123.58 74 111 74 C111 86.21 111 98.42 111 111 C98.79 111 86.58 111 74 111 C74 135.42 74 159.84 74 185 C61.79 185 49.58 185 37 185 C37 160.58 37 136.16 37 111 C24.79 111 12.58 111 0 111 C0 98.79 0 86.58 0 74 C-11.88 74 -23.76 74 -36 74 C-36 61.79 -36 49.58 -36 37 C-24.12 37 -12.24 37 0 37 C0 24.79 0 12.58 0 0 Z " fill="#B4E07E" transform="translate(36,74)"/>
<path d="M0 0 C24.42 0 48.84 0 74 0 C74 12.21 74 24.42 74 37 C86.21 37 98.42 37 111 37 C111 61.42 111 85.84 111 111 C98.79 111 86.58 111 74 111 C74 98.79 74 86.58 74 74 C61.79 74 49.58 74 37 74 C37 86.21 37 98.42 37 111 C24.79 111 12.58 111 0 111 C0 123.21 0 135.42 0 148 C-12.21 148 -24.42 148 -37 148 C-37 111.37 -37 74.74 -37 37 C-24.79 37 -12.58 37 0 37 C0 24.79 0 12.58 0 0 Z " fill="#B4E07E" transform="translate(406,444)"/>
<path d="M0 0 C24.42 0 48.84 0 74 0 C74 24.42 74 48.84 74 74 C86.21 74 98.42 74 111 74 C111 86.21 111 98.42 111 111 C98.79 111 86.58 111 74 111 C74 123.21 74 135.42 74 148 C49.58 148 25.16 148 0 148 C0 123.58 0 99.16 0 74 C-12.21 74 -24.42 74 -37 74 C-37 61.79 -37 49.58 -37 37 C-24.79 37 -12.58 37 0 37 C0 24.79 0 12.58 0 0 Z " fill="#7C9953" transform="translate(591,185)"/>
<path d="M0 0 C48.84 0 97.68 0 148 0 C148 24.42 148 48.84 148 74 C99.16 74 50.32 74 0 74 C0 49.58 0 25.16 0 0 Z " fill="#DE974C" transform="translate(480,629)"/>
<path d="M0 0 C12.21 0 24.42 0 37 0 C37 36.63 37 73.26 37 111 C61.42 111 85.84 111 111 111 C111 123.21 111 135.42 111 148 C62.16 148 13.32 148 -37 148 C-37 123.58 -37 99.16 -37 74 C-24.79 74 -12.58 74 0 74 C0 49.58 0 25.16 0 0 Z " fill="#9C533E" transform="translate(517,481)"/>
<path d="M0 0 C12.21 0 24.42 0 37 0 C37 12.21 37 24.42 37 37 C61.42 37 85.84 37 111 37 C111 61.42 111 85.84 111 111 C74.37 111 37.74 111 0 111 C0 98.79 0 86.58 0 74 C-12.21 74 -24.42 74 -37 74 C-37 61.79 -37 49.58 -37 37 C-24.79 37 -12.58 37 0 37 C0 24.79 0 12.58 0 0 Z " fill="#B4E07E" transform="translate(480,222)"/>
<path d="M0 0 C48.84 0 97.68 0 148 0 C148 12.21 148 24.42 148 37 C135.79 37 123.58 37 111 37 C111 49.21 111 61.42 111 74 C74.37 74 37.74 74 0 74 C0 49.58 0 25.16 0 0 Z " fill="#B4E07E" transform="translate(480,111)"/>
<path d="M0 0 C12.21 0 24.42 0 37 0 C37 12.21 37 24.42 37 37 C49.21 37 61.42 37 74 37 C74 49.21 74 61.42 74 74 C49.58 74 25.16 74 0 74 C0 98.42 0 122.84 0 148 C-12.21 148 -24.42 148 -37 148 C-37 111.37 -37 74.74 -37 37 C-24.79 37 -12.58 37 0 37 C0 24.79 0 12.58 0 0 Z " fill="#9C533E" transform="translate(147,629)"/>
<path d="M0 0 C12.21 0 24.42 0 37 0 C37 12.21 37 24.42 37 37 C49.21 37 61.42 37 74 37 C74 85.84 74 134.68 74 185 C61.79 185 49.58 185 37 185 C37 148.37 37 111.74 37 74 C24.79 74 12.58 74 0 74 C0 49.58 0 25.16 0 0 Z " fill="#853D27" transform="translate(369,592)"/>
<path d="M0 0 C12.21 0 24.42 0 37 0 C37 61.05 37 122.1 37 185 C24.79 185 12.58 185 0 185 C0 123.95 0 62.9 0 0 Z " fill="#401E13" transform="translate(628,407)"/>
<path d="M0 0 C12.21 0 24.42 0 37 0 C37 12.21 37 24.42 37 37 C49.21 37 61.42 37 74 37 C74 49.21 74 61.42 74 74 C61.79 74 49.58 74 37 74 C37 86.21 37 98.42 37 111 C24.79 111 12.58 111 0 111 C0 74.37 0 37.74 0 0 Z " fill="#B4E07E" transform="translate(369,481)"/>
<path d="M0 0 C12.21 0 24.42 0 37 0 C37 48.84 37 97.68 37 148 C24.79 148 12.58 148 0 148 C0 99.16 0 50.32 0 0 Z " fill="#401E13" transform="translate(147,444)"/>
<path d="M0 0 C48.84 0 97.68 0 148 0 C148 12.21 148 24.42 148 37 C99.16 37 50.32 37 0 37 C0 24.79 0 12.58 0 0 Z " fill="#7C9953" transform="translate(221,333)"/>
<path d="M0 0 C12.21 0 24.42 0 37 0 C37 24.42 37 48.84 37 74 C49.21 74 61.42 74 74 74 C74 86.21 74 98.42 74 111 C49.58 111 25.16 111 0 111 C0 74.37 0 37.74 0 0 Z " fill="#B4E07E" transform="translate(110,185)"/>
<path d="M0 0 C48.84 0 97.68 0 148 0 C148 12.21 148 24.42 148 37 C99.16 37 50.32 37 0 37 C0 24.79 0 12.58 0 0 Z " fill="#401E13" transform="translate(332,0)"/>
<path d="M0 0 C36.63 0 73.26 0 111 0 C111 12.21 111 24.42 111 37 C74.37 37 37.74 37 0 37 C0 24.79 0 12.58 0 0 Z " fill="#9C533E" transform="translate(147,740)"/>
<path d="M0 0 C12.21 0 24.42 0 37 0 C37 36.63 37 73.26 37 111 C24.79 111 12.58 111 0 111 C0 74.37 0 37.74 0 0 Z " fill="#401E13" transform="translate(110,666)"/>
<path d="M0 0 C36.63 0 73.26 0 111 0 C111 12.21 111 24.42 111 37 C74.37 37 37.74 37 0 37 C0 24.79 0 12.58 0 0 Z " fill="#7C9953" transform="translate(369,370)"/>
<path d="M0 0 C36.63 0 73.26 0 111 0 C111 12.21 111 24.42 111 37 C74.37 37 37.74 37 0 37 C0 24.79 0 12.58 0 0 Z " fill="#7C9953" transform="translate(480,333)"/>
<path d="M0 0 C36.63 0 73.26 0 111 0 C111 12.21 111 24.42 111 37 C74.37 37 37.74 37 0 37 C0 24.79 0 12.58 0 0 Z " fill="#B4E07E" transform="translate(369,333)"/>
<path d="M0 0 C24.42 0 48.84 0 74 0 C74 12.21 74 24.42 74 37 C61.79 37 49.58 37 37 37 C37 49.21 37 61.42 37 74 C24.79 74 12.58 74 0 74 C0 49.58 0 25.16 0 0 Z " fill="#FFFFFF" transform="translate(554,111)"/>
<path d="M0 0 C24.42 0 48.84 0 74 0 C74 24.42 74 48.84 74 74 C61.79 74 49.58 74 37 74 C37 61.79 37 49.58 37 37 C24.79 37 12.58 37 0 37 C0 24.79 0 12.58 0 0 Z " fill="#FFFFFF" transform="translate(184,111)"/>
<path d="M0 0 C36.63 0 73.26 0 111 0 C111 12.21 111 24.42 111 37 C74.37 37 37.74 37 0 37 C0 24.79 0 12.58 0 0 Z " fill="#401E13" transform="translate(665,74)"/>
<path d="M0 0 C36.63 0 73.26 0 111 0 C111 12.21 111 24.42 111 37 C74.37 37 37.74 37 0 37 C0 24.79 0 12.58 0 0 Z " fill="#401E13" transform="translate(36,74)"/>
<path d="M0 0 C24.42 0 48.84 0 74 0 C74 12.21 74 24.42 74 37 C49.58 37 25.16 37 0 37 C0 24.79 0 12.58 0 0 Z " fill="#B4E07E" transform="translate(480,740)"/>
<path d="M0 0 C24.42 0 48.84 0 74 0 C74 12.21 74 24.42 74 37 C49.58 37 25.16 37 0 37 C0 24.79 0 12.58 0 0 Z " fill="#B4E07E" transform="translate(258,740)"/>
<path d="M0 0 C12.21 0 24.42 0 37 0 C37 24.42 37 48.84 37 74 C24.79 74 12.58 74 0 74 C0 49.58 0 25.16 0 0 Z " fill="#401E13" transform="translate(665,703)"/>
<path d="M0 0 C12.21 0 24.42 0 37 0 C37 24.42 37 48.84 37 74 C24.79 74 12.58 74 0 74 C0 49.58 0 25.16 0 0 Z " fill="#401E13" transform="translate(628,629)"/>
<path d="M0 0 C12.21 0 24.42 0 37 0 C37 24.42 37 48.84 37 74 C24.79 74 12.58 74 0 74 C0 49.58 0 25.16 0 0 Z " fill="#7C9953" transform="translate(332,481)"/>
<path d="M0 0 C12.21 0 24.42 0 37 0 C37 24.42 37 48.84 37 74 C24.79 74 12.58 74 0 74 C0 49.58 0 25.16 0 0 Z " fill="#401E13" transform="translate(184,370)"/>
<path d="M0 0 C24.42 0 48.84 0 74 0 C74 12.21 74 24.42 74 37 C49.58 37 25.16 37 0 37 C0 24.79 0 12.58 0 0 Z " fill="#401E13" transform="translate(591,296)"/>
<path d="M0 0 C24.42 0 48.84 0 74 0 C74 12.21 74 24.42 74 37 C49.58 37 25.16 37 0 37 C0 24.79 0 12.58 0 0 Z " fill="#401E13" transform="translate(147,296)"/>
<path d="M0 0 C12.21 0 24.42 0 37 0 C37 24.42 37 48.84 37 74 C24.79 74 12.58 74 0 74 C0 49.58 0 25.16 0 0 Z " fill="#401E13" transform="translate(73,185)"/>
<path d="M0 0 C12.21 0 24.42 0 37 0 C37 24.42 37 48.84 37 74 C24.79 74 12.58 74 0 74 C0 49.58 0 25.16 0 0 Z " fill="#401E13" transform="translate(739,148)"/>
<path d="M0 0 C24.42 0 48.84 0 74 0 C74 12.21 74 24.42 74 37 C49.58 37 25.16 37 0 37 C0 24.79 0 12.58 0 0 Z " fill="#B4E07E" transform="translate(591,148)"/>
<path d="M0 0 C24.42 0 48.84 0 74 0 C74 12.21 74 24.42 74 37 C49.58 37 25.16 37 0 37 C0 24.79 0 12.58 0 0 Z " fill="#B4E07E" transform="translate(147,148)"/>
<path d="M0 0 C24.42 0 48.84 0 74 0 C74 12.21 74 24.42 74 37 C49.58 37 25.16 37 0 37 C0 24.79 0 12.58 0 0 Z " fill="#401E13" transform="translate(554,74)"/>
<path d="M0 0 C24.42 0 48.84 0 74 0 C74 12.21 74 24.42 74 37 C49.58 37 25.16 37 0 37 C0 24.79 0 12.58 0 0 Z " fill="#401E13" transform="translate(184,74)"/>
<path d="M0 0 C24.42 0 48.84 0 74 0 C74 12.21 74 24.42 74 37 C49.58 37 25.16 37 0 37 C0 24.79 0 12.58 0 0 Z " fill="#401E13" transform="translate(480,37)"/>
<path d="M0 0 C24.42 0 48.84 0 74 0 C74 12.21 74 24.42 74 37 C49.58 37 25.16 37 0 37 C0 24.79 0 12.58 0 0 Z " fill="#401E13" transform="translate(258,37)"/>
<path d="M0 0 C12.21 0 24.42 0 37 0 C37 12.21 37 24.42 37 37 C24.79 37 12.58 37 0 37 C0 24.79 0 12.58 0 0 Z " fill="#9C533E" transform="translate(628,740)"/>
<path d="M0 0 C12.21 0 24.42 0 37 0 C37 12.21 37 24.42 37 37 C24.79 37 12.58 37 0 37 C0 24.79 0 12.58 0 0 Z " fill="#B4E07E" transform="translate(591,740)"/>
<path d="M0 0 C12.21 0 24.42 0 37 0 C37 12.21 37 24.42 37 37 C24.79 37 12.58 37 0 37 C0 24.79 0 12.58 0 0 Z " fill="#7C9953" transform="translate(554,740)"/>
<path d="M0 0 C12.21 0 24.42 0 37 0 C37 12.21 37 24.42 37 37 C24.79 37 12.58 37 0 37 C0 24.79 0 12.58 0 0 Z " fill="#B4E07E" transform="translate(369,740)"/>
<path d="M0 0 C12.21 0 24.42 0 37 0 C37 12.21 37 24.42 37 37 C24.79 37 12.58 37 0 37 C0 24.79 0 12.58 0 0 Z " fill="#7C9953" transform="translate(332,740)"/>
<path d="M0 0 C12.21 0 24.42 0 37 0 C37 12.21 37 24.42 37 37 C24.79 37 12.58 37 0 37 C0 24.79 0 12.58 0 0 Z " fill="#DE974C" transform="translate(628,703)"/>
<path d="M0 0 C12.21 0 24.42 0 37 0 C37 12.21 37 24.42 37 37 C24.79 37 12.58 37 0 37 C0 24.79 0 12.58 0 0 Z " fill="#401E13" transform="translate(147,629)"/>
<path d="M0 0 C12.21 0 24.42 0 37 0 C37 12.21 37 24.42 37 37 C24.79 37 12.58 37 0 37 C0 24.79 0 12.58 0 0 Z " fill="#401E13" transform="translate(591,592)"/>
<path d="M0 0 C12.21 0 24.42 0 37 0 C37 12.21 37 24.42 37 37 C24.79 37 12.58 37 0 37 C0 24.79 0 12.58 0 0 Z " fill="#401E13" transform="translate(184,592)"/>
<path d="M0 0 C12.21 0 24.42 0 37 0 C37 12.21 37 24.42 37 37 C24.79 37 12.58 37 0 37 C0 24.79 0 12.58 0 0 Z " fill="#9C533E" transform="translate(591,555)"/>
<path d="M0 0 C12.21 0 24.42 0 37 0 C37 12.21 37 24.42 37 37 C24.79 37 12.58 37 0 37 C0 24.79 0 12.58 0 0 Z " fill="#9C533E" transform="translate(184,555)"/>
<path d="M0 0 C12.21 0 24.42 0 37 0 C37 12.21 37 24.42 37 37 C24.79 37 12.58 37 0 37 C0 24.79 0 12.58 0 0 Z " fill="#7C9953" transform="translate(406,481)"/>
<path d="M0 0 C12.21 0 24.42 0 37 0 C37 12.21 37 24.42 37 37 C24.79 37 12.58 37 0 37 C0 24.79 0 12.58 0 0 Z " fill="#9C533E" transform="translate(480,444)"/>
<path d="M0 0 C12.21 0 24.42 0 37 0 C37 12.21 37 24.42 37 37 C24.79 37 12.58 37 0 37 C0 24.79 0 12.58 0 0 Z " fill="#9C533E" transform="translate(332,444)"/>
<path d="M0 0 C12.21 0 24.42 0 37 0 C37 12.21 37 24.42 37 37 C24.79 37 12.58 37 0 37 C0 24.79 0 12.58 0 0 Z " fill="#401E13" transform="translate(591,370)"/>
<path d="M0 0 C12.21 0 24.42 0 37 0 C37 12.21 37 24.42 37 37 C24.79 37 12.58 37 0 37 C0 24.79 0 12.58 0 0 Z " fill="#401E13" transform="translate(554,333)"/>
<path d="M0 0 C12.21 0 24.42 0 37 0 C37 12.21 37 24.42 37 37 C24.79 37 12.58 37 0 37 C0 24.79 0 12.58 0 0 Z " fill="#401E13" transform="translate(221,333)"/>
<path d="M0 0 C12.21 0 24.42 0 37 0 C37 12.21 37 24.42 37 37 C24.79 37 12.58 37 0 37 C0 24.79 0 12.58 0 0 Z " fill="#7C9953" transform="translate(554,296)"/>
<path d="M0 0 C12.21 0 24.42 0 37 0 C37 12.21 37 24.42 37 37 C24.79 37 12.58 37 0 37 C0 24.79 0 12.58 0 0 Z " fill="#7C9953" transform="translate(221,296)"/>
<path d="M0 0 C12.21 0 24.42 0 37 0 C37 12.21 37 24.42 37 37 C24.79 37 12.58 37 0 37 C0 24.79 0 12.58 0 0 Z " fill="#401E13" transform="translate(665,259)"/>
<path d="M0 0 C12.21 0 24.42 0 37 0 C37 12.21 37 24.42 37 37 C24.79 37 12.58 37 0 37 C0 24.79 0 12.58 0 0 Z " fill="#B4E07E" transform="translate(628,259)"/>
<path d="M0 0 C12.21 0 24.42 0 37 0 C37 12.21 37 24.42 37 37 C24.79 37 12.58 37 0 37 C0 24.79 0 12.58 0 0 Z " fill="#B4E07E" transform="translate(147,259)"/>
<path d="M0 0 C12.21 0 24.42 0 37 0 C37 12.21 37 24.42 37 37 C24.79 37 12.58 37 0 37 C0 24.79 0 12.58 0 0 Z " fill="#401E13" transform="translate(110,259)"/>
<path d="M0 0 C12.21 0 24.42 0 37 0 C37 12.21 37 24.42 37 37 C24.79 37 12.58 37 0 37 C0 24.79 0 12.58 0 0 Z " fill="#401E13" transform="translate(702,222)"/>
<path d="M0 0 C12.21 0 24.42 0 37 0 C37 12.21 37 24.42 37 37 C24.79 37 12.58 37 0 37 C0 24.79 0 12.58 0 0 Z " fill="#000000" transform="translate(517,222)"/>
<path d="M0 0 C12.21 0 24.42 0 37 0 C37 12.21 37 24.42 37 37 C24.79 37 12.58 37 0 37 C0 24.79 0 12.58 0 0 Z " fill="#FFFFFF" transform="translate(480,222)"/>
<path d="M0 0 C12.21 0 24.42 0 37 0 C37 12.21 37 24.42 37 37 C24.79 37 12.58 37 0 37 C0 24.79 0 12.58 0 0 Z " fill="#B4E07E" transform="translate(406,222)"/>
<path d="M0 0 C12.21 0 24.42 0 37 0 C37 12.21 37 24.42 37 37 C24.79 37 12.58 37 0 37 C0 24.79 0 12.58 0 0 Z " fill="#000000" transform="translate(332,222)"/>
<path d="M0 0 C12.21 0 24.42 0 37 0 C37 12.21 37 24.42 37 37 C24.79 37 12.58 37 0 37 C0 24.79 0 12.58 0 0 Z " fill="#FFFFFF" transform="translate(295,222)"/>
<path d="M0 0 C12.21 0 24.42 0 37 0 C37 12.21 37 24.42 37 37 C24.79 37 12.58 37 0 37 C0 24.79 0 12.58 0 0 Z " fill="#7C9953" transform="translate(258,222)"/>
<path d="M0 0 C12.21 0 24.42 0 37 0 C37 12.21 37 24.42 37 37 C24.79 37 12.58 37 0 37 C0 24.79 0 12.58 0 0 Z " fill="#B4E07E" transform="translate(554,185)"/>
<path d="M0 0 C12.21 0 24.42 0 37 0 C37 12.21 37 24.42 37 37 C24.79 37 12.58 37 0 37 C0 24.79 0 12.58 0 0 Z " fill="#7C9953" transform="translate(665,148)"/>
<path d="M0 0 C12.21 0 24.42 0 37 0 C37 12.21 37 24.42 37 37 C24.79 37 12.58 37 0 37 C0 24.79 0 12.58 0 0 Z " fill="#7C9953" transform="translate(110,148)"/>
<path d="M0 0 C12.21 0 24.42 0 37 0 C37 12.21 37 24.42 37 37 C24.79 37 12.58 37 0 37 C0 24.79 0 12.58 0 0 Z " fill="#401E13" transform="translate(36,148)"/>
<path d="M0 0 C12.21 0 24.42 0 37 0 C37 12.21 37 24.42 37 37 C24.79 37 12.58 37 0 37 C0 24.79 0 12.58 0 0 Z " fill="#401E13" transform="translate(776,111)"/>
<path d="M0 0 C12.21 0 24.42 0 37 0 C37 12.21 37 24.42 37 37 C24.79 37 12.58 37 0 37 C0 24.79 0 12.58 0 0 Z " fill="#401E13" transform="translate(628,111)"/>
<path d="M0 0 C12.21 0 24.42 0 37 0 C37 12.21 37 24.42 37 37 C24.79 37 12.58 37 0 37 C0 24.79 0 12.58 0 0 Z " fill="#7C9953" transform="translate(480,111)"/>
<path d="M0 0 C12.21 0 24.42 0 37 0 C37 12.21 37 24.42 37 37 C24.79 37 12.58 37 0 37 C0 24.79 0 12.58 0 0 Z " fill="#7C9953" transform="translate(332,111)"/>
<path d="M0 0 C12.21 0 24.42 0 37 0 C37 12.21 37 24.42 37 37 C24.79 37 12.58 37 0 37 C0 24.79 0 12.58 0 0 Z " fill="#401E13" transform="translate(147,111)"/>
<path d="M0 0 C12.21 0 24.42 0 37 0 C37 12.21 37 24.42 37 37 C24.79 37 12.58 37 0 37 C0 24.79 0 12.58 0 0 Z " fill="#FFFFFF" transform="translate(517,74)"/>
<path d="M0 0 C12.21 0 24.42 0 37 0 C37 12.21 37 24.42 37 37 C24.79 37 12.58 37 0 37 C0 24.79 0 12.58 0 0 Z " fill="#FFFFFF" transform="translate(258,74)"/>
<path d="M0 0 C11.88 0 23.76 0 36 0 C36 12.21 36 24.42 36 37 C24.12 37 12.24 37 0 37 C0 24.79 0 12.58 0 0 Z " fill="#401E13" transform="translate(0,111)"/>
</svg>
